<mxfile host="app.diagrams.net" modified="2021-07-28T01:06:29.297Z" agent="5.0 (X11; Linux x86_64) AppleWebKit/537.36 (KHTML, like Gecko) Chrome/92.0.4515.107 Safari/537.36" etag="Pa2zY7Cj-4LJrMK81K1h" version="14.9.2" type="github">
  <diagram id="R2lEEEUBdFMjLlhIrx00" name="Page-1">
    <mxGraphModel dx="796" dy="494" grid="1" gridSize="10" guides="1" tooltips="1" connect="1" arrows="1" fold="1" page="1" pageScale="1" pageWidth="850" pageHeight="1100" math="0" shadow="0" extFonts="Permanent Marker^https://fonts.googleapis.com/css?family=Permanent+Marker">
      <root>
        <mxCell id="0" />
        <mxCell id="1" parent="0" />
        <mxCell id="juyjNQ26RhMhx_u0KCxj-1" value="user" style="shape=table;startSize=30;container=1;collapsible=1;childLayout=tableLayout;fixedRows=1;rowLines=0;fontStyle=1;align=center;resizeLast=1;" vertex="1" parent="1">
          <mxGeometry x="40" y="45" width="100" height="90" as="geometry" />
        </mxCell>
        <mxCell id="juyjNQ26RhMhx_u0KCxj-2" value="" style="shape=partialRectangle;collapsible=0;dropTarget=0;pointerEvents=0;fillColor=none;top=0;left=0;bottom=1;right=0;points=[[0,0.5],[1,0.5]];portConstraint=eastwest;" vertex="1" parent="juyjNQ26RhMhx_u0KCxj-1">
          <mxGeometry y="30" width="100" height="30" as="geometry" />
        </mxCell>
        <mxCell id="juyjNQ26RhMhx_u0KCxj-3" value="PK" style="shape=partialRectangle;connectable=0;fillColor=none;top=0;left=0;bottom=0;right=0;fontStyle=1;overflow=hidden;" vertex="1" parent="juyjNQ26RhMhx_u0KCxj-2">
          <mxGeometry width="30" height="30" as="geometry" />
        </mxCell>
        <mxCell id="juyjNQ26RhMhx_u0KCxj-4" value="ID" style="shape=partialRectangle;connectable=0;fillColor=none;top=0;left=0;bottom=0;right=0;align=left;spacingLeft=6;fontStyle=5;overflow=hidden;" vertex="1" parent="juyjNQ26RhMhx_u0KCxj-2">
          <mxGeometry x="30" width="70" height="30" as="geometry" />
        </mxCell>
        <mxCell id="juyjNQ26RhMhx_u0KCxj-5" value="" style="shape=partialRectangle;collapsible=0;dropTarget=0;pointerEvents=0;fillColor=none;top=0;left=0;bottom=0;right=0;points=[[0,0.5],[1,0.5]];portConstraint=eastwest;" vertex="1" parent="juyjNQ26RhMhx_u0KCxj-1">
          <mxGeometry y="60" width="100" height="30" as="geometry" />
        </mxCell>
        <mxCell id="juyjNQ26RhMhx_u0KCxj-6" value="" style="shape=partialRectangle;connectable=0;fillColor=none;top=0;left=0;bottom=0;right=0;editable=1;overflow=hidden;" vertex="1" parent="juyjNQ26RhMhx_u0KCxj-5">
          <mxGeometry width="30" height="30" as="geometry" />
        </mxCell>
        <mxCell id="juyjNQ26RhMhx_u0KCxj-7" value="name" style="shape=partialRectangle;connectable=0;fillColor=none;top=0;left=0;bottom=0;right=0;align=left;spacingLeft=6;overflow=hidden;" vertex="1" parent="juyjNQ26RhMhx_u0KCxj-5">
          <mxGeometry x="30" width="70" height="30" as="geometry" />
        </mxCell>
        <mxCell id="juyjNQ26RhMhx_u0KCxj-27" value="test_user" style="shape=table;startSize=30;container=1;collapsible=1;childLayout=tableLayout;fixedRows=1;rowLines=0;fontStyle=1;align=center;resizeLast=1;" vertex="1" parent="1">
          <mxGeometry x="180" width="160" height="130" as="geometry" />
        </mxCell>
        <mxCell id="juyjNQ26RhMhx_u0KCxj-28" value="" style="shape=partialRectangle;collapsible=0;dropTarget=0;pointerEvents=0;fillColor=none;top=0;left=0;bottom=1;right=0;points=[[0,0.5],[1,0.5]];portConstraint=eastwest;" vertex="1" parent="juyjNQ26RhMhx_u0KCxj-27">
          <mxGeometry y="30" width="160" height="30" as="geometry" />
        </mxCell>
        <mxCell id="juyjNQ26RhMhx_u0KCxj-29" value="PK" style="shape=partialRectangle;connectable=0;fillColor=none;top=0;left=0;bottom=0;right=0;fontStyle=1;overflow=hidden;" vertex="1" parent="juyjNQ26RhMhx_u0KCxj-28">
          <mxGeometry width="30" height="30" as="geometry" />
        </mxCell>
        <mxCell id="juyjNQ26RhMhx_u0KCxj-30" value="ID" style="shape=partialRectangle;connectable=0;fillColor=none;top=0;left=0;bottom=0;right=0;align=left;spacingLeft=6;fontStyle=5;overflow=hidden;" vertex="1" parent="juyjNQ26RhMhx_u0KCxj-28">
          <mxGeometry x="30" width="130" height="30" as="geometry" />
        </mxCell>
        <mxCell id="juyjNQ26RhMhx_u0KCxj-31" value="" style="shape=partialRectangle;collapsible=0;dropTarget=0;pointerEvents=0;fillColor=none;top=0;left=0;bottom=0;right=0;points=[[0,0.5],[1,0.5]];portConstraint=eastwest;" vertex="1" parent="juyjNQ26RhMhx_u0KCxj-27">
          <mxGeometry y="60" width="160" height="30" as="geometry" />
        </mxCell>
        <mxCell id="juyjNQ26RhMhx_u0KCxj-32" value="FK1" style="shape=partialRectangle;connectable=0;fillColor=none;top=0;left=0;bottom=0;right=0;editable=1;overflow=hidden;" vertex="1" parent="juyjNQ26RhMhx_u0KCxj-31">
          <mxGeometry width="30" height="30" as="geometry" />
        </mxCell>
        <mxCell id="juyjNQ26RhMhx_u0KCxj-33" value="user_id int NOT NULL" style="shape=partialRectangle;connectable=0;fillColor=none;top=0;left=0;bottom=0;right=0;align=left;spacingLeft=6;overflow=hidden;" vertex="1" parent="juyjNQ26RhMhx_u0KCxj-31">
          <mxGeometry x="30" width="130" height="30" as="geometry" />
        </mxCell>
        <mxCell id="juyjNQ26RhMhx_u0KCxj-34" value="" style="shape=partialRectangle;collapsible=0;dropTarget=0;pointerEvents=0;fillColor=none;top=0;left=0;bottom=0;right=0;points=[[0,0.5],[1,0.5]];portConstraint=eastwest;" vertex="1" parent="juyjNQ26RhMhx_u0KCxj-27">
          <mxGeometry y="90" width="160" height="30" as="geometry" />
        </mxCell>
        <mxCell id="juyjNQ26RhMhx_u0KCxj-35" value="FK2" style="shape=partialRectangle;connectable=0;fillColor=none;top=0;left=0;bottom=0;right=0;editable=1;overflow=hidden;" vertex="1" parent="juyjNQ26RhMhx_u0KCxj-34">
          <mxGeometry width="30" height="30" as="geometry" />
        </mxCell>
        <mxCell id="juyjNQ26RhMhx_u0KCxj-36" value="test_id int NOT NULL" style="shape=partialRectangle;connectable=0;fillColor=none;top=0;left=0;bottom=0;right=0;align=left;spacingLeft=6;overflow=hidden;" vertex="1" parent="juyjNQ26RhMhx_u0KCxj-34">
          <mxGeometry x="30" width="130" height="30" as="geometry" />
        </mxCell>
        <mxCell id="juyjNQ26RhMhx_u0KCxj-53" value="category" style="shape=table;startSize=50;container=1;collapsible=1;childLayout=tableLayout;fixedRows=1;rowLines=0;fontStyle=1;align=center;resizeLast=1;" vertex="1" parent="1">
          <mxGeometry x="190" y="170" width="130" height="110" as="geometry" />
        </mxCell>
        <mxCell id="juyjNQ26RhMhx_u0KCxj-54" value="" style="shape=partialRectangle;collapsible=0;dropTarget=0;pointerEvents=0;fillColor=none;top=0;left=0;bottom=1;right=0;points=[[0,0.5],[1,0.5]];portConstraint=eastwest;" vertex="1" parent="juyjNQ26RhMhx_u0KCxj-53">
          <mxGeometry y="50" width="130" height="30" as="geometry" />
        </mxCell>
        <mxCell id="juyjNQ26RhMhx_u0KCxj-55" value="PK" style="shape=partialRectangle;connectable=0;fillColor=none;top=0;left=0;bottom=0;right=0;fontStyle=1;overflow=hidden;" vertex="1" parent="juyjNQ26RhMhx_u0KCxj-54">
          <mxGeometry width="30" height="30" as="geometry" />
        </mxCell>
        <mxCell id="juyjNQ26RhMhx_u0KCxj-56" value="ID" style="shape=partialRectangle;connectable=0;fillColor=none;top=0;left=0;bottom=0;right=0;align=left;spacingLeft=6;fontStyle=5;overflow=hidden;" vertex="1" parent="juyjNQ26RhMhx_u0KCxj-54">
          <mxGeometry x="30" width="100" height="30" as="geometry" />
        </mxCell>
        <mxCell id="juyjNQ26RhMhx_u0KCxj-57" value="" style="shape=partialRectangle;collapsible=0;dropTarget=0;pointerEvents=0;fillColor=none;top=0;left=0;bottom=0;right=0;points=[[0,0.5],[1,0.5]];portConstraint=eastwest;" vertex="1" parent="juyjNQ26RhMhx_u0KCxj-53">
          <mxGeometry y="80" width="130" height="30" as="geometry" />
        </mxCell>
        <mxCell id="juyjNQ26RhMhx_u0KCxj-58" value="" style="shape=partialRectangle;connectable=0;fillColor=none;top=0;left=0;bottom=0;right=0;editable=1;overflow=hidden;" vertex="1" parent="juyjNQ26RhMhx_u0KCxj-57">
          <mxGeometry width="30" height="30" as="geometry" />
        </mxCell>
        <mxCell id="juyjNQ26RhMhx_u0KCxj-59" value="title str not NULL" style="shape=partialRectangle;connectable=0;fillColor=none;top=0;left=0;bottom=0;right=0;align=left;spacingLeft=6;overflow=hidden;" vertex="1" parent="juyjNQ26RhMhx_u0KCxj-57">
          <mxGeometry x="30" width="100" height="30" as="geometry" />
        </mxCell>
        <mxCell id="juyjNQ26RhMhx_u0KCxj-66" value="question" style="shape=table;startSize=30;container=1;collapsible=1;childLayout=tableLayout;fixedRows=1;rowLines=0;fontStyle=1;align=center;resizeLast=1;" vertex="1" parent="1">
          <mxGeometry x="620" y="30" width="150" height="130" as="geometry" />
        </mxCell>
        <mxCell id="juyjNQ26RhMhx_u0KCxj-67" value="" style="shape=partialRectangle;collapsible=0;dropTarget=0;pointerEvents=0;fillColor=none;top=0;left=0;bottom=1;right=0;points=[[0,0.5],[1,0.5]];portConstraint=eastwest;" vertex="1" parent="juyjNQ26RhMhx_u0KCxj-66">
          <mxGeometry y="30" width="150" height="30" as="geometry" />
        </mxCell>
        <mxCell id="juyjNQ26RhMhx_u0KCxj-68" value="PK" style="shape=partialRectangle;connectable=0;fillColor=none;top=0;left=0;bottom=0;right=0;fontStyle=1;overflow=hidden;" vertex="1" parent="juyjNQ26RhMhx_u0KCxj-67">
          <mxGeometry width="30" height="30" as="geometry" />
        </mxCell>
        <mxCell id="juyjNQ26RhMhx_u0KCxj-69" value="ID" style="shape=partialRectangle;connectable=0;fillColor=none;top=0;left=0;bottom=0;right=0;align=left;spacingLeft=6;fontStyle=5;overflow=hidden;" vertex="1" parent="juyjNQ26RhMhx_u0KCxj-67">
          <mxGeometry x="30" width="120" height="30" as="geometry" />
        </mxCell>
        <mxCell id="juyjNQ26RhMhx_u0KCxj-70" value="" style="shape=partialRectangle;collapsible=0;dropTarget=0;pointerEvents=0;fillColor=none;top=0;left=0;bottom=0;right=0;points=[[0,0.5],[1,0.5]];portConstraint=eastwest;" vertex="1" parent="juyjNQ26RhMhx_u0KCxj-66">
          <mxGeometry y="60" width="150" height="30" as="geometry" />
        </mxCell>
        <mxCell id="juyjNQ26RhMhx_u0KCxj-71" value="" style="shape=partialRectangle;connectable=0;fillColor=none;top=0;left=0;bottom=0;right=0;editable=1;overflow=hidden;" vertex="1" parent="juyjNQ26RhMhx_u0KCxj-70">
          <mxGeometry width="30" height="30" as="geometry" />
        </mxCell>
        <mxCell id="juyjNQ26RhMhx_u0KCxj-72" value="body str NOT NULL" style="shape=partialRectangle;connectable=0;fillColor=none;top=0;left=0;bottom=0;right=0;align=left;spacingLeft=6;overflow=hidden;" vertex="1" parent="juyjNQ26RhMhx_u0KCxj-70">
          <mxGeometry x="30" width="120" height="30" as="geometry" />
        </mxCell>
        <mxCell id="juyjNQ26RhMhx_u0KCxj-73" value="" style="shape=partialRectangle;collapsible=0;dropTarget=0;pointerEvents=0;fillColor=none;top=0;left=0;bottom=0;right=0;points=[[0,0.5],[1,0.5]];portConstraint=eastwest;" vertex="1" parent="juyjNQ26RhMhx_u0KCxj-66">
          <mxGeometry y="90" width="150" height="30" as="geometry" />
        </mxCell>
        <mxCell id="juyjNQ26RhMhx_u0KCxj-74" value="FK1" style="shape=partialRectangle;connectable=0;fillColor=none;top=0;left=0;bottom=0;right=0;editable=1;overflow=hidden;" vertex="1" parent="juyjNQ26RhMhx_u0KCxj-73">
          <mxGeometry width="30" height="30" as="geometry" />
        </mxCell>
        <mxCell id="juyjNQ26RhMhx_u0KCxj-75" value="test_id int not NULL" style="shape=partialRectangle;connectable=0;fillColor=none;top=0;left=0;bottom=0;right=0;align=left;spacingLeft=6;overflow=hidden;" vertex="1" parent="juyjNQ26RhMhx_u0KCxj-73">
          <mxGeometry x="30" width="120" height="30" as="geometry" />
        </mxCell>
        <mxCell id="juyjNQ26RhMhx_u0KCxj-79" value="answer" style="shape=table;startSize=30;container=1;collapsible=1;childLayout=tableLayout;fixedRows=1;rowLines=0;fontStyle=1;align=center;resizeLast=1;" vertex="1" parent="1">
          <mxGeometry x="590" y="210" width="180" height="130" as="geometry" />
        </mxCell>
        <mxCell id="juyjNQ26RhMhx_u0KCxj-80" value="" style="shape=partialRectangle;collapsible=0;dropTarget=0;pointerEvents=0;fillColor=none;top=0;left=0;bottom=1;right=0;points=[[0,0.5],[1,0.5]];portConstraint=eastwest;" vertex="1" parent="juyjNQ26RhMhx_u0KCxj-79">
          <mxGeometry y="30" width="180" height="30" as="geometry" />
        </mxCell>
        <mxCell id="juyjNQ26RhMhx_u0KCxj-81" value="PK" style="shape=partialRectangle;connectable=0;fillColor=none;top=0;left=0;bottom=0;right=0;fontStyle=1;overflow=hidden;" vertex="1" parent="juyjNQ26RhMhx_u0KCxj-80">
          <mxGeometry width="30" height="30" as="geometry" />
        </mxCell>
        <mxCell id="juyjNQ26RhMhx_u0KCxj-82" value="ID" style="shape=partialRectangle;connectable=0;fillColor=none;top=0;left=0;bottom=0;right=0;align=left;spacingLeft=6;fontStyle=5;overflow=hidden;" vertex="1" parent="juyjNQ26RhMhx_u0KCxj-80">
          <mxGeometry x="30" width="150" height="30" as="geometry" />
        </mxCell>
        <mxCell id="juyjNQ26RhMhx_u0KCxj-83" value="" style="shape=partialRectangle;collapsible=0;dropTarget=0;pointerEvents=0;fillColor=none;top=0;left=0;bottom=0;right=0;points=[[0,0.5],[1,0.5]];portConstraint=eastwest;" vertex="1" parent="juyjNQ26RhMhx_u0KCxj-79">
          <mxGeometry y="60" width="180" height="30" as="geometry" />
        </mxCell>
        <mxCell id="juyjNQ26RhMhx_u0KCxj-84" value="" style="shape=partialRectangle;connectable=0;fillColor=none;top=0;left=0;bottom=0;right=0;editable=1;overflow=hidden;" vertex="1" parent="juyjNQ26RhMhx_u0KCxj-83">
          <mxGeometry width="30" height="30" as="geometry" />
        </mxCell>
        <mxCell id="juyjNQ26RhMhx_u0KCxj-85" value="correct" style="shape=partialRectangle;connectable=0;fillColor=none;top=0;left=0;bottom=0;right=0;align=left;spacingLeft=6;overflow=hidden;" vertex="1" parent="juyjNQ26RhMhx_u0KCxj-83">
          <mxGeometry x="30" width="150" height="30" as="geometry" />
        </mxCell>
        <mxCell id="juyjNQ26RhMhx_u0KCxj-86" value="" style="shape=partialRectangle;collapsible=0;dropTarget=0;pointerEvents=0;fillColor=none;top=0;left=0;bottom=0;right=0;points=[[0,0.5],[1,0.5]];portConstraint=eastwest;" vertex="1" parent="juyjNQ26RhMhx_u0KCxj-79">
          <mxGeometry y="90" width="180" height="30" as="geometry" />
        </mxCell>
        <mxCell id="juyjNQ26RhMhx_u0KCxj-87" value="FK1" style="shape=partialRectangle;connectable=0;fillColor=none;top=0;left=0;bottom=0;right=0;editable=1;overflow=hidden;" vertex="1" parent="juyjNQ26RhMhx_u0KCxj-86">
          <mxGeometry width="30" height="30" as="geometry" />
        </mxCell>
        <mxCell id="juyjNQ26RhMhx_u0KCxj-88" value="question_id int NOT NULL" style="shape=partialRectangle;connectable=0;fillColor=none;top=0;left=0;bottom=0;right=0;align=left;spacingLeft=6;overflow=hidden;" vertex="1" parent="juyjNQ26RhMhx_u0KCxj-86">
          <mxGeometry x="30" width="150" height="30" as="geometry" />
        </mxCell>
        <mxCell id="juyjNQ26RhMhx_u0KCxj-92" value="Test" style="shape=table;startSize=30;container=1;collapsible=1;childLayout=tableLayout;fixedRows=1;rowLines=0;fontStyle=1;align=center;resizeLast=1;" vertex="1" parent="1">
          <mxGeometry x="400" y="10" width="180" height="160" as="geometry" />
        </mxCell>
        <mxCell id="juyjNQ26RhMhx_u0KCxj-93" value="" style="shape=partialRectangle;collapsible=0;dropTarget=0;pointerEvents=0;fillColor=none;top=0;left=0;bottom=1;right=0;points=[[0,0.5],[1,0.5]];portConstraint=eastwest;" vertex="1" parent="juyjNQ26RhMhx_u0KCxj-92">
          <mxGeometry y="30" width="180" height="30" as="geometry" />
        </mxCell>
        <mxCell id="juyjNQ26RhMhx_u0KCxj-94" value="PK" style="shape=partialRectangle;connectable=0;fillColor=none;top=0;left=0;bottom=0;right=0;fontStyle=1;overflow=hidden;" vertex="1" parent="juyjNQ26RhMhx_u0KCxj-93">
          <mxGeometry width="30" height="30" as="geometry" />
        </mxCell>
        <mxCell id="juyjNQ26RhMhx_u0KCxj-95" value="ID" style="shape=partialRectangle;connectable=0;fillColor=none;top=0;left=0;bottom=0;right=0;align=left;spacingLeft=6;fontStyle=5;overflow=hidden;" vertex="1" parent="juyjNQ26RhMhx_u0KCxj-93">
          <mxGeometry x="30" width="150" height="30" as="geometry" />
        </mxCell>
        <mxCell id="juyjNQ26RhMhx_u0KCxj-96" value="" style="shape=partialRectangle;collapsible=0;dropTarget=0;pointerEvents=0;fillColor=none;top=0;left=0;bottom=0;right=0;points=[[0,0.5],[1,0.5]];portConstraint=eastwest;" vertex="1" parent="juyjNQ26RhMhx_u0KCxj-92">
          <mxGeometry y="60" width="180" height="30" as="geometry" />
        </mxCell>
        <mxCell id="juyjNQ26RhMhx_u0KCxj-97" value="" style="shape=partialRectangle;connectable=0;fillColor=none;top=0;left=0;bottom=0;right=0;editable=1;overflow=hidden;" vertex="1" parent="juyjNQ26RhMhx_u0KCxj-96">
          <mxGeometry width="30" height="30" as="geometry" />
        </mxCell>
        <mxCell id="juyjNQ26RhMhx_u0KCxj-98" value="title str NOT NULL" style="shape=partialRectangle;connectable=0;fillColor=none;top=0;left=0;bottom=0;right=0;align=left;spacingLeft=6;overflow=hidden;" vertex="1" parent="juyjNQ26RhMhx_u0KCxj-96">
          <mxGeometry x="30" width="150" height="30" as="geometry" />
        </mxCell>
        <mxCell id="juyjNQ26RhMhx_u0KCxj-99" value="" style="shape=partialRectangle;collapsible=0;dropTarget=0;pointerEvents=0;fillColor=none;top=0;left=0;bottom=0;right=0;points=[[0,0.5],[1,0.5]];portConstraint=eastwest;" vertex="1" parent="juyjNQ26RhMhx_u0KCxj-92">
          <mxGeometry y="90" width="180" height="30" as="geometry" />
        </mxCell>
        <mxCell id="juyjNQ26RhMhx_u0KCxj-100" value="" style="shape=partialRectangle;connectable=0;fillColor=none;top=0;left=0;bottom=0;right=0;editable=1;overflow=hidden;" vertex="1" parent="juyjNQ26RhMhx_u0KCxj-99">
          <mxGeometry width="30" height="30" as="geometry" />
        </mxCell>
        <mxCell id="juyjNQ26RhMhx_u0KCxj-101" value="level int default: 0" style="shape=partialRectangle;connectable=0;fillColor=none;top=0;left=0;bottom=0;right=0;align=left;spacingLeft=6;overflow=hidden;" vertex="1" parent="juyjNQ26RhMhx_u0KCxj-99">
          <mxGeometry x="30" width="150" height="30" as="geometry" />
        </mxCell>
        <mxCell id="juyjNQ26RhMhx_u0KCxj-102" value="" style="shape=partialRectangle;collapsible=0;dropTarget=0;pointerEvents=0;fillColor=none;top=0;left=0;bottom=0;right=0;points=[[0,0.5],[1,0.5]];portConstraint=eastwest;" vertex="1" parent="juyjNQ26RhMhx_u0KCxj-92">
          <mxGeometry y="120" width="180" height="30" as="geometry" />
        </mxCell>
        <mxCell id="juyjNQ26RhMhx_u0KCxj-103" value="FK1" style="shape=partialRectangle;connectable=0;fillColor=none;top=0;left=0;bottom=0;right=0;editable=1;overflow=hidden;" vertex="1" parent="juyjNQ26RhMhx_u0KCxj-102">
          <mxGeometry width="30" height="30" as="geometry" />
        </mxCell>
        <mxCell id="juyjNQ26RhMhx_u0KCxj-104" value="category_id int NOT NULL" style="shape=partialRectangle;connectable=0;fillColor=none;top=0;left=0;bottom=0;right=0;align=left;spacingLeft=6;overflow=hidden;" vertex="1" parent="juyjNQ26RhMhx_u0KCxj-102">
          <mxGeometry x="30" width="150" height="30" as="geometry" />
        </mxCell>
        <mxCell id="juyjNQ26RhMhx_u0KCxj-105" value="" style="edgeStyle=entityRelationEdgeStyle;fontSize=12;html=1;endArrow=ERoneToMany;startSize=30;exitX=1;exitY=0.5;exitDx=0;exitDy=0;" edge="1" parent="1" source="juyjNQ26RhMhx_u0KCxj-2" target="juyjNQ26RhMhx_u0KCxj-31">
          <mxGeometry width="100" height="100" relative="1" as="geometry">
            <mxPoint x="80" y="430" as="sourcePoint" />
            <mxPoint x="220" y="270" as="targetPoint" />
          </mxGeometry>
        </mxCell>
        <mxCell id="juyjNQ26RhMhx_u0KCxj-106" value="" style="edgeStyle=entityRelationEdgeStyle;fontSize=12;html=1;endArrow=ERoneToMany;startSize=30;entryX=1;entryY=0.5;entryDx=0;entryDy=0;exitX=0;exitY=0.5;exitDx=0;exitDy=0;" edge="1" parent="1" source="juyjNQ26RhMhx_u0KCxj-93" target="juyjNQ26RhMhx_u0KCxj-34">
          <mxGeometry width="100" height="100" relative="1" as="geometry">
            <mxPoint x="360" y="310" as="sourcePoint" />
            <mxPoint x="460" y="210" as="targetPoint" />
          </mxGeometry>
        </mxCell>
        <mxCell id="juyjNQ26RhMhx_u0KCxj-107" value="" style="edgeStyle=entityRelationEdgeStyle;fontSize=12;html=1;endArrow=ERoneToMany;startSize=30;exitX=1;exitY=0.5;exitDx=0;exitDy=0;entryX=0;entryY=0.5;entryDx=0;entryDy=0;" edge="1" parent="1" source="juyjNQ26RhMhx_u0KCxj-54" target="juyjNQ26RhMhx_u0KCxj-102">
          <mxGeometry width="100" height="100" relative="1" as="geometry">
            <mxPoint x="360" y="310" as="sourcePoint" />
            <mxPoint x="460" y="210" as="targetPoint" />
          </mxGeometry>
        </mxCell>
        <mxCell id="juyjNQ26RhMhx_u0KCxj-108" value="" style="edgeStyle=entityRelationEdgeStyle;fontSize=12;html=1;endArrow=ERoneToMany;startSize=30;exitX=1;exitY=0.5;exitDx=0;exitDy=0;entryX=0;entryY=0.5;entryDx=0;entryDy=0;" edge="1" parent="1" source="juyjNQ26RhMhx_u0KCxj-93" target="juyjNQ26RhMhx_u0KCxj-73">
          <mxGeometry width="100" height="100" relative="1" as="geometry">
            <mxPoint x="360" y="310" as="sourcePoint" />
            <mxPoint x="460" y="210" as="targetPoint" />
          </mxGeometry>
        </mxCell>
        <mxCell id="juyjNQ26RhMhx_u0KCxj-109" value="" style="edgeStyle=entityRelationEdgeStyle;fontSize=12;html=1;endArrow=ERmandOne;startArrow=ERmandOne;startSize=30;entryX=1;entryY=0.5;entryDx=0;entryDy=0;" edge="1" parent="1" source="juyjNQ26RhMhx_u0KCxj-67" target="juyjNQ26RhMhx_u0KCxj-86">
          <mxGeometry width="100" height="100" relative="1" as="geometry">
            <mxPoint x="360" y="310" as="sourcePoint" />
            <mxPoint x="460" y="210" as="targetPoint" />
          </mxGeometry>
        </mxCell>
      </root>
    </mxGraphModel>
  </diagram>
</mxfile>
